<svg xmlns="http://www.w3.org/2000/svg" viewBox="0 0 160 115.11"><defs><style>.cls-1{fill:#fff;}</style></defs><g id="Layer_2" data-name="Layer 2"><g id="Layer_2-2" data-name="Layer 2"><path class="cls-1" d="M152.11,6.19a39.37,39.37,0,0,0-4.86-2.66h0A38.81,38.81,0,0,0,132,0h-1c-.84,0-1.67,0-2.49.07l-.5,0A58.25,58.25,0,0,0,93.6,13.93l-.54.47c-.76.67-1.5,1.35-2.23,2-.24.22-.47.45-.7.68C77,29.89,68.89,46.54,65.25,55.2c-2,4.63-4.15,9.15-6.52,13.58-6.22,11.64-9.36,19-11.75,23.5-.21.4-.37.82-.54,1.24a8.27,8.27,0,0,1-1.77,2.82,8.47,8.47,0,0,1-1.77,1.43l-.08,0a6.78,6.78,0,0,1-3,1.07h-.07a7.84,7.84,0,0,1-1.29.1h-.27A8.5,8.5,0,0,1,30,90.5c0-.23,0-.46,0-.68v0a11.71,11.71,0,0,1,1.18-3.68s0,0,0,0h0c.2-.58.43-1.22.68-1.9C36.15,72.62,46,48,46,48h0a10.65,10.65,0,0,0,.58-7.59,10.47,10.47,0,0,0-11.21-7.35C18.09,34,6.52,45.79,2.16,53.16A8.9,8.9,0,0,0,0,59a9,9,0,0,0,9,9c.31,0,.62,0,.92,0H10a11.93,11.93,0,0,0,6.85-4.53C20.63,58.83,23,52.32,27.45,50.5a3.37,3.37,0,0,1,.93-.35A4.15,4.15,0,0,1,29.5,50H30a1.49,1.49,0,0,1,.73.17c2.05.89,2.89,1.82,3.19,3.51a4.47,4.47,0,0,1,.08.82,3.43,3.43,0,0,1,0,.56c-.18,1-1.18,2-1.87,3.11h0C26.92,66.86,13.19,90.87,14,99h0c0,.17,0,.33,0,.5A15.5,15.5,0,0,0,29,115h0c33.78,2.06,33.8-26,45.12-45,5-8.47,8.55-15.32,9.58-17.34l.28-.56v0l0,0v0a38,38,0,0,1,51.3-16.86,17,17,0,0,0,24.6-13.27c0-.35.06-.7.08-1A16.7,16.7,0,0,0,152.11,6.19Z"/><ellipse class="cls-1" cx="39.49" cy="15.96" rx="11.29" ry="9" transform="translate(2.21 36.55) rotate(-50.92)"/></g></g></svg>